<svg xmlns="http://www.w3.org/2000/svg">
    <defs>
        <symbol id = "arrow">
            <path fill-rule="evenodd" clip-rule="evenodd" d="M0.292893 0.292893C0.683417 -0.0976311 1.31658 -0.0976311 1.70711 0.292893L9 7.58579L16.2929 0.292893C16.6834 -0.0976311 17.3166 -0.0976311 17.7071 0.292893C18.0976 0.683417 18.0976 1.31658 17.7071 1.70711L9.70711 9.70711C9.31658 10.0976 8.68342 10.0976 8.29289 9.70711L0.292893 1.70711C-0.0976311 1.31658 -0.0976311 0.683417 0.292893 0.292893Z" fill="CurrentColor"/>
         </symbol>
         <symbol id = "check_mark">
            <path fill-rule="evenodd" clip-rule="evenodd" d="M17.7071 0.292893C18.0976 0.683417 18.0976 1.31658 17.7071 1.70711L6.70711 12.7071C6.31658 13.0976 5.68342 13.0976 5.29289 12.7071L0.292893 7.70711C-0.0976311 7.31658 -0.0976311 6.68342 0.292893 6.29289C0.683417 5.90237 1.31658 5.90237 1.70711 6.29289L6 10.5858L16.2929 0.292893C16.6834 -0.0976311 17.3166 -0.0976311 17.7071 0.292893Z" fill="CurrentColor"/>
         </symbol>
          <symbol id = "succsess">
            <path d="M22 11.08V12C21.9988 14.1564 21.3005 16.2547 20.0093 17.9818C18.7182 19.709 16.9033 20.9725 14.8354 21.5839C12.7674 22.1953 10.5573 22.1219 8.53447 21.3746C6.51168 20.6273 4.78465 19.2461 3.61096 17.4371C2.43727 15.628 1.87979 13.4881 2.02168 11.3363C2.16356 9.18457 2.99721 7.13633 4.39828 5.49707C5.79935 3.85782 7.69279 2.71538 9.79619 2.24015C11.8996 1.76491 14.1003 1.98234 16.07 2.86"  stroke-width="2" stroke-linecap="round" stroke-linejoin="round" fill="CurrentColor"/>
            <path d="M22 4L12 14.01L9 11.01"  stroke-width="2" stroke-linecap="round" stroke-linejoin="round" fill="CurrentColor"/>

         </symbol>
          <symbol id = "invalid">
            <path d="M10.29 3.86001L1.82 18C1.64537 18.3024 1.55296 18.6453 1.55199 18.9945C1.55101 19.3437 1.64149 19.6871 1.81442 19.9905C1.98736 20.2939 2.23672 20.5468 2.53771 20.7239C2.83869 20.901 3.1808 20.9962 3.53 21H20.47C20.8192 20.9962 21.1613 20.901 21.4623 20.7239C21.7633 20.5468 22.0126 20.2939 22.1856 19.9905C22.3585 19.6871 22.449 19.3437 22.448 18.9945C22.447 18.6453 22.3546 18.3024 22.18 18L13.71 3.86001C13.5317 3.56611 13.2807 3.32313 12.9812 3.15449C12.6817 2.98585 12.3437 2.89726 12 2.89726C11.6563 2.89726 11.3183 2.98585 11.0188 3.15449C10.7193 3.32313 10.4683 3.56611 10.29 3.86001V3.86001Z" fill="CurrentColor" stroke-width="2" stroke-linecap="round" stroke-linejoin="round"/>
            <path d="M12 9V13"  stroke-width="2" stroke-linecap="round" stroke-linejoin="round" fill="CurrentColor"/>
            <path d="M12 16V16.5"  stroke-width="2" stroke-linecap="round" stroke-linejoin="round" fill="CurrentColor"/>
         </symbol>
    </defs>
</svg>
